<svg version="1.1" id="Layer_1" xmlns="http://www.w3.org/2000/svg" xmlns:xlink="http://www.w3.org/1999/xlink" x="0px" y="0px"
	 width="100%" viewBox="0 0 256 256" enable-background="new 0 0 256 256" xml:space="preserve">
<path fill="#010101" opacity="1.000000" stroke="none" 
	d="
M115.000000,257.000000 
	C76.666672,257.000000 38.833340,257.000000 1.000003,257.000000 
	C1.000000,173.000000 1.026725,88.999977 0.904052,5.000162 
	C0.899052,1.575905 1.575748,0.898905 5.000121,0.904007 
	C87.666603,1.027152 170.333359,1.027149 252.999832,0.904014 
	C256.424072,0.898914 257.101105,1.575710 257.096008,5.000105 
	C256.972870,87.666588 256.972839,170.333344 257.095978,252.999817 
	C257.101074,256.424042 256.425415,257.108826 252.999741,257.097900 
	C207.166855,256.951599 161.333344,257.000000 115.000000,257.000000 
z"/>
<path fill="#F9F9F9" opacity="1.000000" stroke="none" 
	d="
M126.902374,163.310699 
	C113.397270,145.852402 95.426788,141.506088 74.962227,144.455536 
	C65.774780,145.779678 56.677444,147.728958 46.809361,149.527603 
	C51.666828,138.750092 56.626389,128.803329 60.616825,118.481911 
	C62.884182,112.617302 66.029259,110.027260 72.379341,109.484360 
	C82.783493,108.594841 93.000778,105.558533 103.612953,107.819565 
	C110.616562,109.311752 116.883713,112.107681 122.596107,116.930679 
	C125.450714,118.145020 127.381401,120.239746 130.218170,121.556473 
	C131.054047,122.322639 131.398239,122.978294 131.579681,124.118942 
	C131.370285,128.117661 131.017776,131.732300 131.925842,135.701843 
	C132.203064,136.882889 132.379639,137.703262 132.327576,138.513931 
	C131.890839,145.312943 131.997238,151.903687 138.706558,156.572540 
	C137.098953,159.203720 135.397491,161.452408 133.421844,163.881287 
	C131.034821,165.180847 129.177109,163.826279 126.902374,163.310699 
z"/>
<path fill="#FAFAFA" opacity="1.000000" stroke="none" 
	d="
M130.783722,124.424805 
	C130.762817,123.596169 130.528000,123.183678 130.146118,122.582153 
	C130.882248,120.113991 133.771561,120.254272 135.156601,118.065727 
	C136.378036,116.960907 137.394135,116.127090 138.866119,115.371521 
	C144.964645,112.445633 150.440155,109.083122 156.967621,107.793259 
	C169.852951,105.247063 182.113068,109.154587 194.609421,110.701683 
	C195.747360,110.842567 196.396378,111.512665 196.827148,112.466469 
	C202.288452,124.559235 207.741882,136.655548 213.600830,149.645523 
	C206.020905,148.165100 199.234085,146.856705 192.454544,145.511612 
	C181.218521,143.282333 169.993317,142.538483 158.792557,145.702728 
	C151.441681,147.779373 144.975357,151.426041 139.118042,156.826355 
	C136.389496,155.946930 135.057358,153.352951 132.268616,152.765503 
	C130.632446,152.420853 131.024612,150.636047 131.014023,149.355865 
	C130.979630,145.205627 130.997635,141.054947 130.991791,136.434296 
	C129.985199,132.288879 130.714432,128.548477 130.783722,124.424805 
z"/>
<path fill="#E11305" opacity="1.000000" stroke="none" 
	d="
M121.105423,172.716003 
	C124.104019,171.961105 126.804962,171.130371 129.834045,170.122513 
	C133.085526,170.850784 136.008865,171.756180 139.330704,172.729797 
	C139.977249,172.358734 140.345383,172.241852 141.108032,172.569061 
	C141.572510,172.900101 141.742706,173.056152 142.148575,173.468216 
	C143.187485,174.665131 144.322403,175.131760 145.678253,175.985229 
	C168.159958,176.642136 190.279617,177.429520 212.814514,178.566406 
	C217.549118,178.377792 221.890762,179.154678 226.483902,177.857086 
	C227.214493,177.267120 227.679871,177.014938 228.590332,176.937088 
	C232.194229,183.005920 231.679474,183.971863 225.070206,183.867538 
	C200.424530,183.478561 175.779129,183.066284 151.134903,182.596588 
	C148.001846,182.536880 145.443008,183.167496 143.050186,185.490982 
	C135.100021,193.210754 125.707359,193.620834 117.517448,186.285568 
	C114.227730,183.339142 110.949493,182.444717 106.732239,182.544373 
	C82.423691,183.118835 58.110588,183.503967 33.798519,183.923645 
	C27.648046,184.029831 27.647190,183.980179 30.717335,178.252502 
	C31.162880,177.851898 31.415897,177.726837 32.087662,177.661896 
	C37.138088,179.446075 41.942154,178.273605 47.094402,178.548248 
	C69.676514,177.543930 91.838928,176.956360 114.372101,175.831589 
	C115.494186,175.459030 116.104393,175.008423 116.939606,174.262299 
	C117.560089,173.739456 117.942322,173.490707 118.653564,173.160095 
	C119.556931,172.832458 120.193237,172.787720 121.105423,172.716003 
z"/>
<path fill="#F40D02" opacity="1.000000" stroke="none" 
	d="
M182.040115,59.595516 
	C169.937469,68.442619 157.164795,71.707718 143.065247,65.269226 
	C139.813232,63.784210 136.316940,63.603630 132.351501,63.714905 
	C131.419785,63.784908 130.957703,63.709435 130.265594,63.250427 
	C129.957153,57.972702 129.899612,52.950459 129.932693,47.469322 
	C130.178452,46.847759 130.333603,46.685085 130.750931,46.310410 
	C138.577911,44.633961 144.515869,48.371517 150.175888,52.431828 
	C159.204987,58.908985 169.014648,60.832508 180.207489,58.330242 
	C181.256653,58.317730 181.725693,58.627163 182.040115,59.595516 
z"/>
<path fill="#2A0104" opacity="1.000000" stroke="none" 
	d="
M224.210785,169.706711 
	C210.635574,168.476822 197.939255,163.855225 184.720932,161.811447 
	C174.399124,160.215530 164.023483,160.249435 153.864700,162.598022 
	C153.016022,161.405777 153.732056,160.728119 154.431839,160.450592 
	C165.544312,156.043518 176.766678,153.830841 188.643784,157.691452 
	C197.131683,160.450409 205.843094,162.514832 214.412231,165.033920 
	C218.191803,166.145020 219.553925,164.795761 219.265900,160.660614 
	C220.058762,160.013458 220.747452,160.064926 221.710175,160.537964 
	C222.674591,162.846878 223.353256,164.949020 224.039688,167.420563 
	C224.394440,168.260529 224.530228,168.785690 224.210785,169.706711 
z"/>
<path fill="#230003" opacity="1.000000" stroke="none" 
	d="
M40.442581,165.089111 
	C50.447487,165.404099 58.972134,161.195511 67.867752,158.790649 
	C78.559776,155.900085 89.045364,153.735107 99.909546,157.903122 
	C102.576912,158.926453 105.134079,159.962769 107.706161,161.851532 
	C108.083649,162.295166 108.149796,162.582123 107.900475,163.178619 
	C99.719955,162.940598 91.887436,162.053970 83.959785,162.411774 
	C77.955231,162.682770 72.163307,163.671051 66.367516,165.225021 
	C57.955986,167.480347 49.568913,170.100403 40.296875,169.546417 
	C38.864861,167.908005 38.818684,166.520203 40.442581,165.089111 
z"/>
<path fill="#080606" opacity="1.000000" stroke="none" 
	d="
M39.632317,168.727875 
	C48.219105,168.358841 56.327610,166.707932 64.183128,164.313721 
	C78.473648,159.958252 92.745377,159.736038 107.602684,162.987671 
	C108.595886,163.022308 109.124901,163.205551 109.783508,163.787018 
	C109.992249,164.397583 109.997673,164.806854 110.008163,165.523071 
	C109.630875,166.282928 109.144928,166.538727 108.134232,166.558624 
	C98.973732,163.575195 90.098198,164.199478 81.226784,165.639465 
	C74.854164,166.673828 68.540253,168.024094 61.997627,170.178131 
	C61.316368,170.297791 61.041916,170.331573 60.354511,170.387283 
	C54.224422,171.009048 48.644104,172.413742 42.561378,173.325012 
	C40.207733,173.363678 38.261448,173.486526 35.952980,172.911697 
	C35.341793,172.589401 35.120090,172.420700 34.746941,171.863632 
	C34.869118,170.384125 35.297127,169.376282 36.521339,168.414490 
	C37.726601,168.023300 38.529461,168.097336 39.632317,168.727875 
z"/>
<path fill="#777679" opacity="1.000000" stroke="none" 
	d="
M153.917145,165.502563 
	C168.753036,160.642487 182.907974,164.707474 197.134445,167.928833 
	C203.458435,169.360779 209.826202,170.599396 216.564667,172.017365 
	C217.237106,173.107132 216.773636,173.806595 215.626755,174.556320 
	C206.220062,174.275177 197.522797,172.034897 188.791412,170.128876 
	C180.146164,168.241653 171.483765,167.117844 162.631058,167.454544 
	C160.152863,167.548798 157.636551,167.753052 154.805756,166.778564 
	C154.210373,166.363281 154.009537,166.147339 153.917145,165.502563 
z"/>
<path fill="#0D0D0D" opacity="1.000000" stroke="none" 
	d="
M136.439545,117.830254 
	C135.050034,120.433937 133.308075,121.907936 130.351135,122.287811 
	C127.123138,121.683418 125.098076,119.743797 123.041382,117.350891 
	C123.417145,117.006737 123.919281,116.978905 124.798325,116.935120 
	C125.768120,115.879570 125.401711,114.734474 125.595078,113.312119 
	C125.991028,111.420479 126.476295,109.916534 127.463898,108.235687 
	C129.499893,106.739838 129.159821,104.145218 131.184387,102.742416 
	C131.986893,102.777191 132.344284,103.046448 132.816315,103.728340 
	C133.038971,103.997635 132.993332,104.004189 132.998108,103.981628 
	C134.177643,106.286438 135.353195,108.613449 136.411804,111.427383 
	C136.646347,113.700317 137.682281,115.554749 136.439545,117.830254 
z"/>
<path fill="#C71008" opacity="1.000000" stroke="none" 
	d="
M220.163956,155.884949 
	C215.834000,145.335464 211.404373,135.141617 207.108322,124.891785 
	C206.664795,123.833580 204.349792,122.469627 206.692581,121.332916 
	C208.209351,120.596985 208.913956,122.276802 209.460342,123.500168 
	C214.333694,134.411469 219.209641,145.321609 224.055832,156.244980 
	C224.643555,157.569672 225.575089,159.058228 223.071472,160.029663 
	C221.149658,159.266006 220.454178,157.861420 220.163956,155.884949 
z"/>
<path fill="#BE110A" opacity="1.000000" stroke="none" 
	d="
M37.954819,159.868561 
	C34.507927,159.081467 35.857639,156.935776 36.611111,155.244003 
	C41.278625,144.764008 46.040981,134.326141 50.802216,123.888138 
	C51.401291,122.574791 52.109474,120.446106 53.814419,121.425049 
	C55.580093,122.438858 53.680889,124.050415 53.160187,125.251030 
	C48.860767,135.164413 44.462498,145.034912 40.000320,155.305450 
	C39.962509,157.287064 39.269321,158.567291 37.954819,159.868561 
z"/>
<path fill="#CD1208" opacity="1.000000" stroke="none" 
	d="
M129.856903,63.365326 
	C130.531601,63.103226 131.048508,63.211510 131.734116,63.525848 
	C131.724564,75.534302 132.845642,87.350967 131.328033,99.546738 
	C129.712631,98.841759 129.256821,97.380959 129.286423,95.587929 
	C129.461792,84.971146 129.568985,74.353233 129.856903,63.365326 
z"/>
<path fill="#939090" opacity="1.000000" stroke="none" 
	d="
M219.785645,155.507736 
	C221.497650,156.567535 222.163544,157.951706 222.644669,159.785660 
	C222.588470,160.270828 222.428436,160.414688 222.113495,160.630859 
	C221.341400,160.575775 220.686890,160.406830 219.694229,160.228180 
	C211.828323,158.155106 204.300552,156.091736 196.392883,153.939011 
	C195.350754,152.826569 195.670242,152.082703 197.146835,151.509171 
	C204.863098,152.813721 212.104446,154.141953 219.785645,155.507736 
z"/>
<path fill="#8B8788" opacity="1.000000" stroke="none" 
	d="
M37.988731,160.120300 
	C37.848404,158.530273 38.136082,157.079636 39.685589,155.896027 
	C46.619438,154.446732 53.332405,153.200974 60.467972,151.912750 
	C61.311207,152.290359 61.499195,152.796799 61.258335,153.763077 
	C59.268105,154.716309 57.474083,155.296051 55.318611,155.869110 
	C54.431854,155.944153 53.915199,156.057571 53.184555,156.384567 
	C49.486488,157.506363 46.032135,158.523438 42.246613,159.718872 
	C41.313202,160.575104 40.557198,160.823868 39.281258,160.547638 
	C38.693558,160.329727 38.493126,160.266663 37.988731,160.120300 
z"/>
<path fill="#777679" opacity="1.000000" stroke="none" 
	d="
M61.476330,154.164948 
	C61.031048,153.632568 60.999973,153.128601 60.929733,152.247452 
	C60.890572,151.870270 60.943340,151.927948 60.909401,151.947311 
	C61.182751,151.840195 61.438877,151.646179 61.814354,151.211243 
	C66.618011,149.545486 71.406418,148.799515 76.608574,148.119202 
	C77.706161,148.353714 78.144333,148.797989 78.178680,149.784149 
	C72.647484,151.449951 67.269012,152.821640 61.476330,154.164948 
z"/>
<path fill="#6D6C6F" opacity="1.000000" stroke="none" 
	d="
M78.458908,150.123505 
	C77.770554,149.599930 77.515152,149.121613 77.138184,148.400375 
	C84.476707,146.269211 91.839325,147.228409 99.561432,149.013763 
	C100.081230,149.348129 100.216591,149.584824 100.211182,150.205536 
	C93.036537,149.159027 85.976532,149.043015 78.458908,150.123505 
z"/>
<path fill="#6D6C6F" opacity="1.000000" stroke="none" 
	d="
M164.806183,148.372406 
	C170.762787,146.845001 176.520248,146.823837 182.638275,147.908936 
	C183.375122,148.609436 183.498154,149.149689 183.049438,150.072327 
	C177.129562,149.909012 171.523941,148.847107 165.447647,149.881744 
	C164.672501,149.541840 164.518311,149.130402 164.806183,148.372406 
z"/>
<path fill="#8B8788" opacity="1.000000" stroke="none" 
	d="
M183.055679,150.625656 
	C182.819687,149.890961 182.886963,149.389771 182.965805,148.510178 
	C184.361786,148.261917 185.746201,148.392044 187.512924,148.690109 
	C188.354614,148.924698 188.813644,148.993881 189.614471,149.129852 
	C192.527740,148.970398 194.349823,151.701920 197.333130,151.237991 
	C197.130142,152.030991 196.638519,152.576508 196.079941,153.485840 
	C191.794968,152.852814 187.576965,151.855988 183.055679,150.625656 
z"/>
<path fill="#E9EAE9" opacity="1.000000" stroke="none" 
	d="
M130.419418,169.667938 
	C130.162170,169.945389 130.266022,169.902222 130.293610,169.909393 
	C129.139511,167.913040 127.957809,165.909485 126.681183,163.538635 
	C128.676178,162.385849 130.694458,162.151947 132.799316,163.997314 
	C132.323990,165.837830 131.500336,167.614166 130.419418,169.667938 
z"/>
<path fill="#400509" opacity="1.000000" stroke="none" 
	d="
M38.854401,160.711243 
	C39.644001,160.211380 40.394012,160.029938 41.529732,159.872864 
	C41.592869,161.353668 41.270302,162.810104 40.922733,164.644760 
	C39.781837,165.870972 40.048679,167.109528 39.975365,168.611633 
	C39.219864,168.975937 38.473888,168.983276 37.354477,168.981537 
	C36.504272,168.597443 36.151585,168.138031 35.958523,167.245880 
	C36.879456,164.978928 37.847134,163.004303 38.854401,160.711243 
z"/>
<path fill="#545355" opacity="1.000000" stroke="none" 
	d="
M164.635712,148.073242 
	C165.027939,148.498657 165.020447,148.891708 165.026245,149.579117 
	C161.006378,151.008453 156.973236,152.143417 152.558975,153.380295 
	C151.979187,153.415405 151.780487,153.348602 151.533951,152.971054 
	C155.285217,149.876144 159.707077,148.810822 164.635712,148.073242 
z"/>
<path fill="#5D5D5E" opacity="1.000000" stroke="none" 
	d="
M153.642639,165.059601 
	C154.025726,165.356277 154.025848,165.638855 154.029510,166.345306 
	C152.171432,170.367508 148.545624,170.243683 144.905273,170.839951 
	C144.279526,170.651291 144.043198,170.533524 143.575699,170.094147 
	C146.065826,166.972412 149.657959,165.998871 153.642639,165.059601 
z"/>
<path fill="#4B4B4B" opacity="1.000000" stroke="none" 
	d="
M100.325424,150.773071 
	C100.042404,150.343765 100.014381,150.097961 99.966110,149.481781 
	C104.329117,149.937119 108.351486,151.610474 112.208389,154.496063 
	C112.426987,154.936829 112.407852,155.112457 112.140190,155.380127 
	C108.121254,153.966965 104.350845,152.461777 100.325424,150.773071 
z"/>
<path fill="#424343" opacity="1.000000" stroke="none" 
	d="
M152.033783,153.252441 
	C149.659027,155.222763 147.140167,156.963318 144.329956,158.867645 
	C143.553513,159.236023 143.157333,159.124573 142.925034,158.348846 
	C145.135620,155.542786 147.811295,153.899139 151.165970,152.728424 
	C151.620621,152.781082 151.755142,152.901871 152.033783,153.252441 
z"/>
<path fill="#777679" opacity="1.000000" stroke="none" 
	d="
M130.867172,100.263466 
	C131.142197,99.952797 131.059021,99.967567 131.036926,99.960915 
	C131.324554,100.327583 131.634308,100.700905 132.040680,101.426018 
	C132.239410,102.050323 132.341507,102.322830 132.194061,102.953506 
	C129.744690,103.915321 129.986557,106.408546 128.337952,107.823669 
	C127.861603,108.127136 127.643402,108.245514 127.140625,108.123764 
	C128.101410,105.447136 129.346786,103.010635 130.867172,100.263466 
z"/>
<path fill="#7B7B7C" opacity="1.000000" stroke="none" 
	d="
M136.561493,118.101791 
	C136.105774,116.101242 135.968445,114.005501 135.773621,111.464073 
	C135.912750,110.901314 136.109375,110.784241 136.597229,110.848892 
	C137.424438,112.336281 137.960419,113.641960 138.827881,115.086380 
	C139.647324,117.174881 137.760300,117.178276 136.561493,118.101791 
z"/>
<path fill="#545355" opacity="1.000000" stroke="none" 
	d="
M107.775330,166.590378 
	C108.398834,166.137421 108.862144,166.060928 109.669342,165.907227 
	C111.719749,166.640808 113.426254,167.451614 115.387299,168.513885 
	C115.482239,168.988480 115.322647,169.211624 114.801071,169.632477 
	C112.134842,170.414108 110.095810,169.817337 107.991447,168.105042 
	C107.705009,167.504898 107.660072,167.235870 107.775330,166.590378 
z"/>
<path fill="#900D0C" opacity="1.000000" stroke="none" 
	d="
M182.362213,59.998016 
	C181.749496,59.613903 181.468643,59.192917 180.915283,58.499893 
	C182.096634,57.071762 183.724274,56.554523 185.671066,56.613033 
	C185.399445,58.642036 183.953217,59.213783 182.362213,59.998016 
z"/>
<path fill="#636265" opacity="1.000000" stroke="none" 
	d="
M136.876694,110.679977 
	C136.693359,111.026665 136.498260,111.022713 136.009644,111.018585 
	C134.372910,109.074142 133.276047,107.016182 132.895737,104.317978 
	C135.286194,105.478668 135.780548,108.082863 136.876694,110.679977 
z"/>
<path fill="#900D0C" opacity="1.000000" stroke="none" 
	d="
M228.982483,176.673355 
	C228.654099,177.111130 228.398392,177.304276 228.096710,177.808426 
	C227.150772,178.349228 226.509689,177.989685 225.681641,177.155838 
	C225.098328,176.139282 224.963669,175.386353 225.055466,174.223145 
	C225.485611,173.189896 225.519501,172.354141 226.588211,171.954819 
	C227.636047,173.460831 228.308945,174.896255 228.982483,176.673355 
z"/>
<path fill="#470F0D" opacity="1.000000" stroke="none" 
	d="
M226.947754,171.692352 
	C226.635468,172.503220 226.307800,172.981033 225.936890,173.763031 
	C225.695999,174.153915 225.498383,174.240631 225.023361,174.160339 
	C224.680283,173.787720 224.614609,173.582062 224.750885,173.123260 
	C224.716431,172.108429 224.480011,171.346725 224.105164,170.316483 
	C223.979767,169.547516 223.992813,169.047058 224.026642,168.168289 
	C225.347717,168.706055 226.513870,169.730560 226.947754,171.692352 
z"/>
<path fill="#900D0C" opacity="1.000000" stroke="none" 
	d="
M35.018272,170.756668 
	C35.347321,171.214844 35.316067,171.505188 35.283195,172.233551 
	C35.503494,172.998001 35.629589,173.359314 35.652069,174.042389 
	C35.479988,174.914963 35.186348,175.415909 34.557430,176.041565 
	C34.144531,176.291473 33.960602,176.357819 33.483810,176.409592 
	C32.820370,176.240799 32.540264,175.989563 32.259895,175.354340 
	C32.623062,173.870163 33.091785,172.657028 33.745590,171.176819 
	C34.173103,170.802765 34.415535,170.695801 35.018272,170.756668 
z"/>
<path fill="#AFAFAF" opacity="1.000000" stroke="none" 
	d="
M126.556801,108.041885 
	C127.058388,107.920128 127.260735,107.956612 127.771446,108.000931 
	C127.669556,109.645432 127.259300,111.282097 126.624924,113.212875 
	C125.923073,113.378044 125.596680,113.088356 125.259407,112.315811 
	C125.466423,110.747841 125.861992,109.473984 126.556801,108.041885 
z"/>
<path fill="#4B4B4B" opacity="1.000000" stroke="none" 
	d="
M143.018387,169.836227 
	C143.654770,169.844391 143.965012,169.916260 144.742126,170.089325 
	C144.801315,172.418961 143.208344,173.247635 140.814240,173.458527 
	C140.198792,173.339920 140.014893,173.252182 139.803101,172.933136 
	C140.254929,171.359665 141.253784,170.405060 143.018387,169.836227 
z"/>
<path fill="#470F0D" opacity="1.000000" stroke="none" 
	d="
M35.570045,170.757233 
	C35.137375,170.920517 34.896172,170.916550 34.292816,170.911163 
	C34.420425,169.721893 34.910183,168.534042 35.655861,167.149872 
	C36.253826,167.424408 36.595879,167.895264 36.959488,168.669281 
	C36.574535,169.511612 36.168022,170.050797 35.570045,170.757233 
z"/>
<path fill="#343638" opacity="1.000000" stroke="none" 
	d="
M112.271477,154.910828 
	C113.917229,155.028595 115.358810,155.337646 115.852463,157.362183 
	C114.086082,158.242035 113.340782,156.610672 112.082474,155.703644 
	C111.891670,155.472137 112.096825,155.060455 112.271477,154.910828 
z"/>
<path fill="#343638" opacity="1.000000" stroke="none" 
	d="
M142.716309,158.142899 
	C143.195419,158.268753 143.390823,158.536896 143.812408,158.918213 
	C143.525482,160.005936 142.736816,160.652527 141.302338,160.958374 
	C140.874466,159.725998 141.561798,158.952454 142.716309,158.142899 
z"/>
<path fill="#777679" opacity="1.000000" stroke="none" 
	d="
M219.007675,172.558868 
	C220.724884,172.651535 221.995148,172.717056 223.635056,172.882812 
	C224.093735,173.265076 224.182739,173.547089 223.982330,174.168152 
	C221.993042,175.453979 220.268433,175.448853 218.186737,174.344360 
	C217.779663,173.398041 218.016617,172.892914 219.007675,172.558868 
z"/>
<path fill="#424343" opacity="1.000000" stroke="none" 
	d="
M113.827682,169.544052 
	C114.099976,169.137207 114.407455,169.066101 115.178383,168.880157 
	C116.645416,168.875214 117.492401,169.253922 118.133530,170.438995 
	C118.129822,170.917770 118.025848,171.115768 117.612259,171.446350 
	C115.817261,171.698395 114.672386,171.128525 113.827682,169.544052 
z"/>
<path fill="#CDCCCD" opacity="1.000000" stroke="none" 
	d="
M124.945824,112.419044 
	C125.397774,112.322739 125.724709,112.623779 126.226227,113.215904 
	C126.187660,114.549194 125.974510,115.591415 125.468307,116.776398 
	C125.057091,115.551575 124.938950,114.183983 124.945824,112.419044 
z"/>
<path fill="#BE110A" opacity="1.000000" stroke="none" 
	d="
M31.984116,175.354645 
	C32.411697,175.290833 32.669064,175.498352 33.044144,175.928162 
	C33.597561,176.837097 33.461521,177.436462 32.540184,177.991211 
	C31.981726,178.007324 31.767439,178.000732 31.231510,177.985535 
	C31.211210,177.193283 31.512554,176.409622 31.984116,175.354645 
z"/>
<path fill="#0D0D0D" opacity="1.000000" stroke="none" 
	d="
M109.945786,163.672577 
	C109.438889,163.818512 108.890945,163.648712 108.175354,163.238037 
	C108.007698,162.997177 108.008827,162.502563 108.013161,162.255402 
	C108.911583,162.086914 109.685638,162.333572 109.945786,163.672577 
z"/>
<path fill="#343638" opacity="1.000000" stroke="none" 
	d="
M138.321014,163.973022 
	C138.042923,163.088333 138.392960,162.371506 139.681641,162.033142 
	C139.967804,162.974426 139.564957,163.659164 138.321014,163.973022 
z"/>
<path fill="#777679" opacity="1.000000" stroke="none" 
	d="
M53.218864,156.555984 
	C53.187077,155.601410 53.532204,154.879547 54.807159,155.664734 
	C54.470398,156.115845 53.983643,156.369263 53.218864,156.555984 
z"/>
<path fill="#6D6C6F" opacity="1.000000" stroke="none" 
	d="
M189.741653,149.005829 
	C189.366547,150.019638 188.748901,149.938797 188.003998,149.054077 
	C188.439026,148.844543 188.982834,148.831055 189.741653,149.005829 
z"/>
<path fill="#636265" opacity="1.000000" stroke="none" 
	d="
M219.180054,172.402130 
	C219.101273,172.845200 218.747925,173.104385 218.210388,173.633102 
	C217.580780,174.300247 217.067535,174.430222 216.217957,173.972290 
	C216.225143,173.279663 216.500900,172.907425 216.865952,172.322083 
	C217.605331,172.145386 218.255402,172.181808 219.180054,172.402130 
z"/>
<path fill="#636265" opacity="1.000000" stroke="none" 
	d="
M132.030792,103.566025 
	C131.965622,103.054810 131.986679,102.797958 132.072525,102.159454 
	C132.450638,102.308762 132.763962,102.839714 133.058136,103.684151 
	C132.731659,103.938553 132.424332,103.879471 132.030792,103.566025 
z"/>
<path fill="#424343" opacity="1.000000" stroke="none" 
	d="
M121.076630,172.549011 
	C121.102341,173.091019 120.801605,173.390213 120.292458,173.749969 
	C119.922234,173.642822 119.760429,173.475159 119.793076,172.665024 
	C120.241745,172.117111 120.495964,172.211655 121.076630,172.549011 
z"/>
<path fill="#424343" opacity="1.000000" stroke="none" 
	d="
M118.156952,170.814758 
	C118.726540,170.987686 119.219276,171.255630 119.849762,171.773056 
	C119.987518,172.022552 120.005898,171.996048 120.016830,171.984528 
	C119.322800,172.609802 118.657799,172.476486 117.972084,171.484390 
	C117.926743,171.100082 118.080093,170.909775 118.156952,170.814758 
z"/>
<path fill="#343638" opacity="1.000000" stroke="none" 
	d="
M137.990860,163.987625 
	C137.903610,164.020554 137.825592,164.064972 137.885376,164.063370 
	C138.023193,164.017334 138.000107,163.999130 137.990860,163.987625 
z"/>
<path fill="#636265" opacity="1.000000" stroke="none" 
	d="
M224.259262,174.138153 
	C224.004120,173.845215 224.002670,173.672821 224.002975,173.241760 
	C224.004715,172.983078 224.475540,172.893433 224.714203,172.881775 
	C224.962479,173.056442 224.972122,173.242737 224.993469,173.708572 
	C224.841125,174.078323 224.677032,174.168503 224.259262,174.138153 
z"/>
<path fill="#343638" opacity="1.000000" stroke="none" 
	d="
M122.048355,164.154724 
	C122.117928,164.162460 122.254295,164.301987 122.390656,164.441498 
	C122.298820,164.389847 122.206985,164.338181 122.048355,164.154724 
z"/>
<path fill="#343638" opacity="1.000000" stroke="none" 
	d="
M122.010445,163.992462 
	C121.892685,163.925201 121.764008,163.866669 121.635323,163.808136 
	C121.727638,163.770691 121.819962,163.733246 121.946922,163.859375 
	C121.981560,164.022949 121.999519,164.001175 122.010445,163.992462 
z"/>
<path fill="#CD1208" opacity="1.000000" stroke="none" 
	d="
M130.737854,46.096821 
	C130.902649,46.400219 130.714218,46.641018 130.235550,46.915615 
	C130.169724,46.705368 130.316147,46.400303 130.737854,46.096821 
z"/>
<path fill="#343638" opacity="1.000000" stroke="none" 
	d="
M120.064209,161.213562 
	C120.307579,161.050995 120.483070,161.248230 120.658569,161.445480 
	C120.437828,161.488113 120.217087,161.530762 120.064209,161.213562 
z"/>
<path fill="#343638" opacity="1.000000" stroke="none" 
	d="
M119.067642,160.250717 
	C119.447487,159.967926 119.699913,160.162964 120.012497,160.644318 
	C120.132080,160.853745 119.959801,161.034424 119.869034,161.125366 
	C119.477257,161.085281 119.217705,160.897049 119.067642,160.250717 
z"/>
<path fill="#343638" opacity="1.000000" stroke="none" 
	d="
M118.059135,159.249725 
	C118.436310,158.971329 118.693542,159.161087 119.013062,159.641174 
	C119.135651,159.849792 118.957756,160.036224 118.864166,160.130035 
	C118.469063,160.086334 118.212036,159.890442 118.059135,159.249725 
z"/>
<path fill="#343638" opacity="1.000000" stroke="none" 
	d="
M117.873184,159.113708 
	C117.621269,159.009521 117.453690,158.824295 117.286118,158.639069 
	C117.488953,158.608856 117.691795,158.578644 118.006706,158.705856 
	C118.118774,158.863281 117.957527,159.032700 117.873184,159.113708 
z"/>
<path fill="#8B8788" opacity="1.000000" stroke="none" 
	d="
M61.715847,151.057892 
	C61.772301,151.288437 61.559738,151.538986 61.111320,151.878113 
	C61.065918,151.670410 61.256374,151.374161 61.715847,151.057892 
z"/>
<path fill="#343638" opacity="1.000000" stroke="none" 
	d="
M139.970306,161.966492 
	C140.107178,161.653473 140.270920,161.369446 140.671448,161.001312 
	C140.908249,160.917191 140.990707,160.993210 141.030960,161.036209 
	C140.890884,161.350861 140.710556,161.622528 140.292877,161.971527 
	C140.055542,162.048859 139.997192,161.995483 139.970306,161.966492 
z"/>
<path fill="#CDCCCD" opacity="1.000000" stroke="none" 
	d="
M90.238739,117.075974 
	C85.459694,117.646042 81.140106,118.209335 75.681236,118.921204 
	C82.554405,115.251106 96.791855,114.521576 102.567337,117.471146 
	C98.609398,117.012436 94.653732,117.026215 90.238739,117.075974 
z"/>
<path fill="#AFAFAF" opacity="1.000000" stroke="none" 
	d="
M93.843506,133.039001 
	C98.870964,132.919189 103.530586,133.762817 107.553116,136.916138 
	C103.312439,135.942032 99.071762,134.967926 94.430107,133.926102 
	C93.910065,133.677307 93.791000,133.496216 93.843506,133.039001 
z"/>
<path fill="#CDCCCD" opacity="1.000000" stroke="none" 
	d="
M86.282013,123.962326 
	C82.099716,125.314926 78.092010,125.863899 73.057747,126.016342 
	C77.381729,123.268295 81.558632,124.269073 85.636726,123.095573 
	C86.205933,123.309959 86.362549,123.496887 86.282013,123.962326 
z"/>
<path fill="#C3C3C3" opacity="1.000000" stroke="none" 
	d="
M112.931335,133.234238 
	C109.236694,132.081207 105.980614,131.106918 102.724541,130.132614 
	C102.849106,129.713074 102.973663,129.293518 103.098228,128.873962 
	C106.911789,128.897614 110.211700,130.910721 113.904938,132.630951 
	C113.894524,133.061554 113.632210,133.237274 112.931335,133.234238 
z"/>
<path fill="#BBBBBB" opacity="1.000000" stroke="none" 
	d="
M86.494713,124.203873 
	C86.040314,124.054245 86.035751,123.867645 86.040253,123.402039 
	C90.534874,122.914612 95.023285,122.657150 99.451752,124.158432 
	C95.271027,124.299927 91.099297,123.834671 86.494713,124.203873 
z"/>
<path fill="#BBBBBB" opacity="1.000000" stroke="none" 
	d="
M93.687103,132.529129 
	C94.016991,132.945709 94.018913,133.128540 94.024979,133.584869 
	C90.318611,133.624908 86.608093,133.391418 82.455612,133.158417 
	C81.900055,132.989990 81.786461,132.821075 81.850037,132.403473 
	C85.804504,132.201630 89.581818,132.248505 93.687103,132.529129 
z"/>
<path fill="#E9EAE9" opacity="1.000000" stroke="none" 
	d="
M130.708008,124.297394 
	C130.993622,127.689552 130.989624,131.370438 130.986877,135.507736 
	C129.143539,132.254318 130.046158,128.406952 130.708008,124.297394 
z"/>
<path fill="#C3C3C3" opacity="1.000000" stroke="none" 
	d="
M81.630508,132.119339 
	C82.023460,132.321686 82.019737,132.488586 82.014832,132.907196 
	C79.735062,134.606293 77.291595,133.929199 74.797256,133.362885 
	C76.942780,132.936569 79.088295,132.510239 81.630508,132.119339 
z"/>
<path fill="#C3C3C3" opacity="1.000000" stroke="none" 
	d="
M108.275665,126.522713 
	C106.347588,125.758209 103.801239,126.743935 102.495399,124.514206 
	C104.457909,123.386078 105.971413,124.649933 107.844673,125.404816 
	C108.242798,125.831856 108.380455,126.037086 108.275665,126.522713 
z"/>
<path fill="#B7B7B7" opacity="1.000000" stroke="none" 
	d="
M110.000633,119.272293 
	C107.866684,119.225151 106.179771,118.788124 104.282135,117.600311 
	C106.511162,116.344574 108.046082,117.722244 109.942497,118.445770 
	C110.247917,118.882263 110.283104,119.092010 110.000633,119.272293 
z"/>
<path fill="#BBBBBB" opacity="1.000000" stroke="none" 
	d="
M116.938950,130.724304 
	C115.671646,130.178391 114.448372,129.969635 114.162346,128.118042 
	C115.745415,128.665985 117.817467,127.892052 116.938950,130.724304 
z"/>
<path fill="#BBBBBB" opacity="1.000000" stroke="none" 
	d="
M108.377792,126.908920 
	C108.039146,126.607941 108.045097,126.412781 108.078094,125.922119 
	C109.606430,126.068459 111.459137,125.557266 112.571838,127.311607 
	C111.139297,128.820175 109.982704,127.074974 108.377792,126.908920 
z"/>
<path fill="#CDCCCD" opacity="1.000000" stroke="none" 
	d="
M72.698441,134.118591 
	C72.100723,134.532120 71.529503,134.667801 70.950424,134.742355 
	C70.915291,134.746872 70.675575,134.143066 70.772522,134.030746 
	C71.331810,133.382828 71.984283,133.018234 72.698441,134.118591 
z"/>
<path fill="#AFAFAF" opacity="1.000000" stroke="none" 
	d="
M117.122414,142.230896 
	C115.892090,141.747910 115.005966,141.244965 113.919189,140.507477 
	C113.767914,140.098770 113.817276,139.924606 114.125298,139.667908 
	C115.284546,140.051437 116.185135,140.517487 117.240059,141.254364 
	C117.418457,141.753799 117.442528,141.982376 117.122414,142.230896 
z"/>
<path fill="#AFAFAF" opacity="1.000000" stroke="none" 
	d="
M111.692642,138.640381 
	C110.570053,138.825607 109.826683,138.549332 109.426003,137.749756 
	C109.356827,137.611710 109.587669,137.135071 109.736893,137.105865 
	C110.835876,136.890808 111.604332,137.325684 111.692642,138.640381 
z"/>
<path fill="#BBBBBB" opacity="1.000000" stroke="none" 
	d="
M121.086571,133.280029 
	C119.969505,132.995438 118.921227,132.464981 119.265503,131.727020 
	C119.762604,130.661453 120.528374,131.508636 121.222885,132.311005 
	C121.386597,132.808456 121.411697,133.040634 121.086571,133.280029 
z"/>
<path fill="#BBBBBB" opacity="1.000000" stroke="none" 
	d="
M121.206528,132.755157 
	C122.036385,132.914108 123.127281,133.328598 122.791519,134.065125 
	C122.271400,135.206055 121.641441,134.058228 120.910164,133.518188 
	C120.736343,133.287231 121.051559,132.934067 121.206528,132.755157 
z"/>
<path fill="#AFAFAF" opacity="1.000000" stroke="none" 
	d="
M121.178726,125.660507 
	C122.310860,125.860321 122.936928,126.383652 123.051956,127.678032 
	C122.369316,127.563492 121.742912,127.121445 120.969231,126.423233 
	C120.821953,126.167061 120.949562,125.714020 121.178726,125.660507 
z"/>
<path fill="#AFAFAF" opacity="1.000000" stroke="none" 
	d="
M110.093361,118.827225 
	C110.719360,118.959686 111.225983,119.246864 111.732597,119.534042 
	C111.248352,120.133728 110.693047,119.960136 109.905533,119.462158 
	C109.682983,119.242821 109.973984,118.981941 110.093361,118.827225 
z"/>
<path fill="#AFAFAF" opacity="1.000000" stroke="none" 
	d="
M116.066254,121.735802 
	C116.803497,121.938828 117.321571,122.176376 117.896179,122.731956 
	C117.363327,122.927689 116.773956,122.805389 115.982529,122.446083 
	C115.780487,122.209068 115.847076,121.770332 116.066254,121.735802 
z"/>
<path fill="#AFAFAF" opacity="1.000000" stroke="none" 
	d="
M112.709282,133.305695 
	C112.770615,133.034592 113.048462,133.013687 113.741577,132.939301 
	C114.473221,132.974457 114.750404,133.132034 115.115479,133.563751 
	C115.242561,133.768951 115.164711,134.219696 114.939674,134.260498 
	C114.118355,134.052826 113.522079,133.804367 112.709282,133.305695 
z"/>
<path fill="#AFAFAF" opacity="1.000000" stroke="none" 
	d="
M118.833572,143.346375 
	C118.093529,143.170731 117.606560,142.926254 116.948914,142.466309 
	C116.778221,142.250839 117.085121,141.892212 117.239761,141.708710 
	C117.893173,141.788757 118.391945,142.052322 119.062134,142.544922 
	C119.184593,142.941818 119.135628,143.109665 118.833572,143.346375 
z"/>
<path fill="#AFAFAF" opacity="1.000000" stroke="none" 
	d="
M113.887711,140.103760 
	C113.538605,139.948471 113.358658,139.624039 113.178711,139.299591 
	C113.445892,139.266144 113.713074,139.232697 114.182106,139.392303 
	C114.383965,139.585373 114.056885,139.934586 113.887711,140.103760 
z"/>
<path fill="#AFAFAF" opacity="1.000000" stroke="none" 
	d="
M117.915573,136.285034 
	C117.502548,136.027451 117.346313,135.714935 117.190079,135.402420 
	C117.437256,135.379105 117.684433,135.355789 118.107841,135.524689 
	C118.246841,135.887970 118.209610,136.059052 117.915573,136.285034 
z"/>
<path fill="#AFAFAF" opacity="1.000000" stroke="none" 
	d="
M115.109558,133.901031 
	C115.454926,134.001602 115.667290,134.234253 115.879654,134.466919 
	C115.604263,134.528336 115.328873,134.589752 114.884056,134.476227 
	C114.714638,134.301285 114.976555,134.033096 115.109558,133.901031 
z"/>
<path fill="#AFAFAF" opacity="1.000000" stroke="none" 
	d="
M123.004791,127.995773 
	C123.144989,128.134186 123.280869,128.276367 123.416740,128.418549 
	C123.316292,128.378510 123.215836,128.338455 123.055557,128.151978 
	C122.995720,128.005539 123.000465,127.999550 123.004791,127.995773 
z"/>
<path fill="#AFAFAF" opacity="1.000000" stroke="none" 
	d="
M120.190300,125.130920 
	C120.649719,124.768059 120.920044,124.943619 121.270508,125.407135 
	C121.407898,125.607002 121.117531,125.888420 120.969742,126.027740 
	C120.513466,126.042152 120.258965,125.846878 120.190300,125.130920 
z"/>
<path fill="#AFAFAF" opacity="1.000000" stroke="none" 
	d="
M119.963974,125.029312 
	C119.581352,124.942627 119.318657,124.740250 119.051239,124.244247 
	C119.365517,124.056709 119.684525,124.162796 120.162842,124.474739 
	C120.322144,124.680595 120.083893,124.913612 119.963974,125.029312 
z"/>
<path fill="#AFAFAF" opacity="1.000000" stroke="none" 
	d="
M118.977600,124.020813 
	C118.646492,123.888100 118.339180,123.732826 117.992287,123.313766 
	C117.952705,123.049988 117.995384,123.004944 118.021255,122.980309 
	C118.352615,123.112144 118.658096,123.268616 119.005035,123.687859 
	C119.046501,123.950623 119.001396,123.998238 118.977600,124.020813 
z"/>
<path fill="#AFAFAF" opacity="1.000000" stroke="none" 
	d="
M115.907578,122.082977 
	C115.598686,121.934822 115.416885,121.660576 115.235085,121.386322 
	C115.471672,121.366783 115.708267,121.347252 116.115143,121.514496 
	C116.285423,121.701271 116.034676,121.956879 115.907578,122.082977 
z"/>
<path fill="#AFAFAF" opacity="1.000000" stroke="none" 
	d="
M113.651100,120.652908 
	C113.373421,120.677666 113.270653,120.578392 113.167885,120.479118 
	C113.387260,120.495705 113.606636,120.512291 113.651100,120.652908 
z"/>
<path fill="#AFAFAF" opacity="1.000000" stroke="none" 
	d="
M119.868004,144.326477 
	C119.308853,144.264130 119.051445,144.075180 118.714813,143.613190 
	C118.580490,143.415207 118.903229,143.092575 119.068390,142.933258 
	C119.533234,142.909012 119.786194,143.104507 120.109337,143.571976 
	C120.189041,143.947311 120.151840,144.111130 119.868004,144.326477 
z"/>
<path fill="#AFAFAF" opacity="1.000000" stroke="none" 
	d="
M121.051315,145.235748 
	C121.303658,145.043106 121.459862,145.242935 121.616058,145.442749 
	C121.395767,145.504562 121.175476,145.566376 121.051315,145.235748 
z"/>
<path fill="#AFAFAF" opacity="1.000000" stroke="none" 
	d="
M120.810425,145.198334 
	C120.390167,145.198929 120.127258,145.015060 119.765732,144.571899 
	C119.621368,144.378036 119.921379,144.080322 120.073807,143.931915 
	C120.527000,143.921768 120.771339,144.127136 121.053352,144.621460 
	C121.147453,144.843292 120.922028,145.079285 120.810425,145.198334 
z"/>
<path fill="#AFAFAF" opacity="1.000000" stroke="none" 
	d="
M122.063385,140.149292 
	C122.152473,140.133560 122.294403,140.277359 122.436340,140.421158 
	C122.329643,140.383713 122.222939,140.346283 122.063385,140.149292 
z"/>
<path fill="#AFAFAF" opacity="1.000000" stroke="none" 
	d="
M121.230278,139.125092 
	C121.585052,138.934158 121.814941,139.195786 122.027687,139.723572 
	C122.010544,139.989746 122.000763,139.999268 121.997330,140.002289 
	C121.697723,139.862762 121.401550,139.720184 121.230278,139.125092 
z"/>
<path fill="#AFAFAF" opacity="1.000000" stroke="none" 
	d="
M120.977448,139.020828 
	C120.532906,139.041901 120.265091,138.866699 119.922508,138.404999 
	C119.795975,138.197662 119.908440,137.714371 120.152298,137.668671 
	C120.700699,137.760269 120.941216,137.970718 121.236435,138.463440 
	C121.355171,138.672546 121.102402,138.903702 120.977448,139.020828 
z"/>
<path fill="#AFAFAF" opacity="1.000000" stroke="none" 
	d="
M119.105515,136.699310 
	C119.670212,136.764053 119.925926,136.958298 120.262878,137.421997 
	C120.396149,137.622986 120.096687,137.909348 119.946335,138.053497 
	C119.484306,138.090851 119.214615,137.918381 118.855408,137.476959 
	C118.765465,137.102524 118.807014,136.931442 119.105515,136.699310 
z"/>
<path fill="#AFAFAF" opacity="1.000000" stroke="none" 
	d="
M118.128021,135.872955 
	C118.580093,135.848480 118.842415,136.029037 119.216751,136.448425 
	C119.362473,136.638290 119.044426,136.954697 118.884171,137.114166 
	C118.428337,137.140915 118.167885,136.958145 117.800659,136.532639 
	C117.658775,136.339966 117.971977,136.029007 118.128021,135.872955 
z"/>
<path fill="#BBBBBB" opacity="1.000000" stroke="none" 
	d="
M176.173431,123.959579 
	C165.168625,123.841789 154.564392,124.866852 144.514511,129.270905 
	C153.806198,123.119308 164.315552,122.643288 175.477264,123.106750 
	C176.068176,123.329971 176.198761,123.502472 176.173431,123.959579 
z"/>
<path fill="#CDCCCD" opacity="1.000000" stroke="none" 
	d="
M156.708008,117.047745 
	C165.316528,114.422646 174.190338,114.798599 184.567398,118.267776 
	C174.835281,118.348846 166.317505,115.607849 157.399918,117.960068 
	C156.807327,117.752625 156.637039,117.554550 156.708008,117.047745 
z"/>
<path fill="#CDCCCD" opacity="1.000000" stroke="none" 
	d="
M178.743515,132.368958 
	C182.632996,132.636887 186.328308,133.139160 190.023605,133.641434 
	C189.982834,134.049118 189.942047,134.456802 189.901260,134.864487 
	C186.521133,134.537048 183.140991,134.209625 179.324921,133.794922 
	C178.607178,133.391373 178.493973,133.023254 178.743515,132.368958 
z"/>
<path fill="#B7B7B7" opacity="1.000000" stroke="none" 
	d="
M151.639038,136.945679 
	C154.479004,134.231491 157.974075,134.088242 161.661850,134.302551 
	C158.762375,135.249756 155.862915,136.196976 152.585876,137.191162 
	C151.997375,137.244003 151.786438,137.249863 151.639038,136.945679 
z"/>
<path fill="#CDCCCD" opacity="1.000000" stroke="none" 
	d="
M176.309723,124.478798 
	C176.004562,124.062706 175.991623,123.881218 175.958130,123.428604 
	C179.323639,123.995110 183.018723,123.546074 186.671829,125.731621 
	C182.847855,126.316071 179.798264,124.729012 176.309723,124.478798 
z"/>
<path fill="#B7B7B7" opacity="1.000000" stroke="none" 
	d="
M178.487427,132.096375 
	C178.938736,132.485947 178.939774,132.837265 178.914902,133.448120 
	C175.544724,133.205521 172.200378,132.687042 168.476501,133.782761 
	C167.696930,133.504166 167.530197,133.113251 167.823303,132.375122 
	C171.385162,132.101654 174.711182,132.079895 178.487427,132.096375 
z"/>
<path fill="#BBBBBB" opacity="1.000000" stroke="none" 
	d="
M149.408569,132.001373 
	C151.268112,130.076965 153.995331,129.228485 157.085236,129.424789 
	C155.060852,131.158875 152.554977,131.736877 149.408569,132.001373 
z"/>
<path fill="#CDCCCD" opacity="1.000000" stroke="none" 
	d="
M167.702789,132.087296 
	C168.052872,132.496994 168.046570,132.870575 168.063965,133.521851 
	C167.117050,133.801010 165.692627,134.679840 165.512497,132.957886 
	C165.412994,132.006653 166.601807,132.128403 167.702789,132.087296 
z"/>
<path fill="#CDCCCD" opacity="1.000000" stroke="none" 
	d="
M143.742813,141.830826 
	C143.304565,142.722870 142.510803,143.369949 141.295959,143.952026 
	C140.891495,143.042892 141.240463,142.408157 142.316544,141.998108 
	C142.863678,141.824875 143.125504,141.705353 143.742813,141.830826 
z"/>
<path fill="#B7B7B7" opacity="1.000000" stroke="none" 
	d="
M144.624573,140.928558 
	C145.070129,139.489120 145.968872,139.007782 147.365295,138.702515 
	C147.883560,138.663864 148.087967,138.679276 148.279358,139.001892 
	C147.430023,139.887604 146.593735,140.466110 145.456055,141.108795 
	C144.952347,141.189713 144.750046,141.206467 144.624573,140.928558 
z"/>
<path fill="#CDCCCD" opacity="1.000000" stroke="none" 
	d="
M139.180267,139.106995 
	C138.952835,140.065903 138.573105,140.866928 137.843262,140.472382 
	C136.951065,139.990082 137.569351,139.400696 138.409882,138.932373 
	C138.843124,138.849136 139.032516,138.837265 139.180267,139.106995 
z"/>
<path fill="#CDCCCD" opacity="1.000000" stroke="none" 
	d="
M138.676270,126.049736 
	C138.769730,126.601791 138.524338,127.117302 138.196411,127.573486 
	C138.149353,127.638931 137.523849,127.475807 137.473724,127.319679 
	C137.244431,126.605598 137.713287,126.238914 138.676270,126.049736 
z"/>
<path fill="#BBBBBB" opacity="1.000000" stroke="none" 
	d="
M140.637161,131.944168 
	C141.003647,130.866486 141.639725,129.903015 142.337280,130.351288 
	C143.364487,131.011414 142.362701,131.591156 141.458160,132.113541 
	C140.967850,132.210663 140.765961,132.224731 140.637161,131.944168 
z"/>
<path fill="#BBBBBB" opacity="1.000000" stroke="none" 
	d="
M156.620331,116.794067 
	C156.959366,116.940948 156.969498,117.142883 156.978622,117.647751 
	C156.169281,117.903534 155.223099,118.499855 154.630020,117.447784 
	C155.183807,117.248230 155.737610,117.048676 156.620331,116.794067 
z"/>
<path fill="#B7B7B7" opacity="1.000000" stroke="none" 
	d="
M144.310959,141.971527 
	C143.850403,142.051041 143.602478,142.026260 142.978195,141.972961 
	C143.107498,141.577621 143.613144,141.210815 144.410110,140.738983 
	C144.701416,140.633926 144.922760,140.906082 145.038696,141.039520 
	C145.008514,141.462753 144.798157,141.694183 144.310959,141.971527 
z"/>
<path fill="#BBBBBB" opacity="1.000000" stroke="none" 
	d="
M151.532043,118.309219 
	C152.089996,118.150230 152.592972,118.046768 152.352600,118.680008 
	C152.331451,118.735756 151.692719,118.557098 151.532043,118.309219 
z"/>
<path fill="#B7B7B7" opacity="1.000000" stroke="none" 
	d="
M143.802994,122.002563 
	C144.282120,121.266029 144.781677,120.595741 145.568939,121.325531 
	C145.600616,121.354897 145.153458,121.900818 144.640381,122.278870 
	C144.186661,122.317429 144.021988,122.283188 143.802994,122.002563 
z"/>
<path fill="#BBBBBB" opacity="1.000000" stroke="none" 
	d="
M139.342682,133.044937 
	C139.325424,132.556778 139.752777,132.202667 140.445175,131.749023 
	C140.710236,131.649521 140.935852,131.924225 141.052795,132.060394 
	C140.708939,132.524048 140.248123,132.851517 139.342682,133.044937 
z"/>
<path fill="#BBBBBB" opacity="1.000000" stroke="none" 
	d="
M149.132904,132.147217 
	C148.781326,132.582672 148.321548,132.898773 147.580292,133.263763 
	C147.298813,133.312653 146.841354,133.224213 146.796844,132.995544 
	C147.247574,132.477997 147.742828,132.189102 148.524307,131.843719 
	C148.810547,131.787216 149.024704,132.027878 149.132904,132.147217 
z"/>
<path fill="#B7B7B7" opacity="1.000000" stroke="none" 
	d="
M152.079941,137.089096 
	C151.726517,137.532822 151.244751,137.827530 150.478821,138.173615 
	C149.978973,138.227600 149.763321,138.230225 149.614059,137.916229 
	C150.174225,137.332642 150.668015,137.065674 151.432190,136.717148 
	C151.702545,136.635605 151.951584,136.940079 152.079941,137.089096 
z"/>
<path fill="#B7B7B7" opacity="1.000000" stroke="none" 
	d="
M150.063873,138.070435 
	C149.731323,138.531128 149.268005,138.837280 148.535492,139.226273 
	C148.266312,139.309113 147.976929,138.979111 147.828033,138.813782 
	C148.164337,138.354996 148.649551,138.061539 149.407593,137.683853 
	C149.680435,137.599625 149.933121,137.915909 150.063873,138.070435 
z"/>
<path fill="#B7B7B7" opacity="1.000000" stroke="none" 
	d="
M140.205780,124.966537 
	C140.125656,124.767296 140.280746,124.561203 140.435852,124.355103 
	C140.437561,124.556625 140.439270,124.758156 140.205780,124.966537 
z"/>
<path fill="#BBBBBB" opacity="1.000000" stroke="none" 
	d="
M143.744019,134.942596 
	C143.966629,134.545319 144.232651,134.377396 144.498657,134.209473 
	C144.550003,134.467102 144.601349,134.724747 144.449127,135.122025 
	C144.245575,135.261673 143.787399,135.171967 143.744019,134.942596 
z"/>
<path fill="#BBBBBB" opacity="1.000000" stroke="none" 
	d="
M137.863113,134.051361 
	C137.900558,134.026947 137.825668,134.075775 137.863113,134.051361 
z"/>
<path fill="#BBBBBB" opacity="1.000000" stroke="none" 
	d="
M147.163269,133.175110 
	C147.031708,133.471893 146.764618,133.631134 146.497513,133.790390 
	C146.452942,133.543701 146.408386,133.296997 146.558075,132.908600 
	C146.752335,132.766891 147.027740,133.037582 147.163269,133.175110 
z"/>
<path fill="#BBBBBB" opacity="1.000000" stroke="none" 
	d="
M138.006897,134.009109 
	C138.033691,133.663757 138.182693,133.375259 138.680664,133.032806 
	C138.898087,132.910904 139.053268,133.059753 139.131195,133.140030 
	C138.970901,133.461182 138.732681,133.702057 138.234970,133.960510 
	C137.975464,133.978104 137.997513,133.997986 138.006897,134.009109 
z"/>
<path fill="#B7B7B7" opacity="1.000000" stroke="none" 
	d="
M140.014816,125.016075 
	C139.871170,125.334717 139.713470,125.638275 139.298676,126.023560 
	C139.041565,126.105278 138.998627,126.007812 138.945618,125.981712 
	C139.077271,125.661537 139.261917,125.367455 139.708557,125.023376 
	C139.970566,124.973389 140.000778,125.000992 140.014816,125.016075 
z"/>
<path fill="#BBBBBB" opacity="1.000000" stroke="none" 
	d="
M144.110382,135.123520 
	C143.987015,135.430252 143.728455,135.598831 143.469894,135.767410 
	C143.423416,135.517548 143.376938,135.267685 143.515533,134.865540 
	C143.700623,134.713242 143.975204,134.985367 144.110382,135.123520 
z"/>
<path fill="#B7B7B7" opacity="1.000000" stroke="none" 
	d="
M143.206635,123.007996 
	C142.987610,123.422867 142.718979,123.595367 142.450348,123.767868 
	C142.389969,123.502716 142.329605,123.237549 142.470367,122.821365 
	C142.671509,122.670341 143.157028,122.765633 143.206635,123.007996 
z"/>
<path fill="#B7B7B7" opacity="1.000000" stroke="none" 
	d="
M142.817627,122.815399 
	C142.838455,122.391350 143.059021,122.164505 143.540955,121.872986 
	C143.748688,121.756172 144.048309,122.050987 144.199829,122.201324 
	C144.180649,122.629982 143.954880,122.852402 143.465149,123.134644 
	C143.256241,123.250374 142.963760,122.960464 142.817627,122.815399 
z"/>
<path fill="#BBBBBB" opacity="1.000000" stroke="none" 
	d="
M149.495102,119.379112 
	C149.608902,119.302689 149.663284,119.596375 149.663284,119.596375 
	C149.663284,119.596375 149.381302,119.455536 149.495102,119.379112 
z"/>
<path fill="#CDCCCD" opacity="1.000000" stroke="none" 
	d="
M139.817535,145.044312 
	C139.893707,145.178131 139.688477,146.069550 139.817535,145.044312 
z"/>
<path fill="#CDCCCD" opacity="1.000000" stroke="none" 
	d="
M141.039551,144.047134 
	C140.998169,144.433182 140.807831,144.692474 140.292419,144.968201 
	C140.063873,145.055542 139.994629,144.992264 139.960541,144.955536 
	C139.970474,144.568695 140.137390,144.293076 140.651047,143.989502 
	C140.874878,143.887039 140.987152,143.991257 141.039551,144.047134 
z"/>
<path fill="#BBBBBB" opacity="1.000000" stroke="none" 
	d="
M138.802032,138.968002 
	C138.875534,138.586380 139.097351,138.311768 139.546692,137.902191 
	C139.774231,137.767212 140.221619,137.819031 140.244263,138.043076 
	C140.039413,138.538300 139.811951,138.809479 139.361542,139.234619 
	C139.138596,139.388580 138.950348,139.074997 138.802032,138.968002 
z"/>
<path fill="#BBBBBB" opacity="1.000000" stroke="none" 
	d="
M139.897415,137.892181 
	C139.914703,137.469376 140.114304,137.218582 140.585251,136.897751 
	C140.797485,136.780655 141.238693,136.857010 141.274384,137.078033 
	C141.180145,137.608871 140.971039,137.849976 140.474823,138.144760 
	C140.266891,138.267120 140.020599,138.017136 139.897415,137.892181 
z"/>
<path fill="#BBBBBB" opacity="1.000000" stroke="none" 
	d="
M140.924515,136.911346 
	C141.042526,136.607651 141.287582,136.434631 141.532623,136.261627 
	C141.578400,136.507507 141.624191,136.753403 141.490021,137.149170 
	C141.310074,137.299057 141.051544,137.042053 140.924515,136.911346 
z"/>
<path fill="#0A0505" opacity="1.000000" stroke="none" 
	d="
M116.912506,175.637573 
	C115.923698,177.882233 114.149925,178.018112 112.251678,178.066956 
	C90.809280,178.618515 69.367729,179.203598 47.461174,179.744354 
	C45.613579,179.087402 43.781742,180.166870 42.587162,178.162918 
	C42.591156,177.495728 42.665985,177.229431 43.045525,176.672897 
	C43.849537,176.096191 44.380360,175.890656 45.376007,175.708618 
	C56.686073,176.186432 67.142502,173.020630 77.845352,171.962479 
	C87.425499,171.015335 96.935333,169.636215 106.963623,171.327728 
	C109.521790,171.777008 111.545464,172.682434 114.117462,172.985962 
	C115.544998,173.528427 116.328194,174.230377 116.912506,175.637573 
z"/>
<path fill="#0A0505" opacity="1.000000" stroke="none" 
	d="
M214.435577,179.608139 
	C191.737961,179.148270 169.463684,178.576401 147.189194,178.014130 
	C145.980652,177.983627 144.889938,177.709183 143.751495,176.498749 
	C143.451157,174.031067 145.642883,174.094070 146.865173,172.716721 
	C147.455734,172.140076 147.850952,171.879257 148.633728,171.572906 
	C150.257217,171.530960 151.479813,171.277023 153.089737,170.846176 
	C167.430847,169.680008 181.178833,171.152283 194.810501,173.968964 
	C201.277115,175.305130 207.939331,175.224304 214.773544,176.969666 
	C216.461456,178.112259 216.692657,178.946762 214.435577,179.608139 
z"/>
<path fill="#0D0201" opacity="1.000000" stroke="none" 
	d="
M120.264137,184.849915 
	C117.567314,182.276840 117.633118,180.356155 120.268112,178.014740 
	C126.493027,172.483383 135.436478,172.863434 141.354889,179.001968 
	C142.902359,180.606979 142.700439,181.535568 141.313889,183.083878 
	C135.883163,189.148193 127.097092,190.107162 120.264137,184.849915 
z"/>
<path fill="#0F0E0E" opacity="1.000000" stroke="none" 
	d="
M44.872169,176.858337 
	C44.489212,177.028336 44.173042,177.091644 44.173042,177.091644 
	C44.173042,177.091644 43.850681,177.084045 43.694736,177.043213 
	C40.954609,178.774033 38.130455,178.580856 34.828926,177.804245 
	C34.178825,177.362000 33.960388,177.128906 33.845573,176.428009 
	C34.209480,175.467880 34.469765,174.975586 34.876812,174.244843 
	C36.744137,172.526932 38.832947,173.161255 41.201874,173.002258 
	C47.760147,172.187668 53.996159,171.852432 60.156685,169.163803 
	C60.514076,168.969955 60.490761,169.009262 60.475845,168.991943 
	C64.556274,170.103958 68.243477,168.029388 72.049873,167.293365 
	C82.340866,165.303467 92.599426,163.680679 103.120605,164.981857 
	C104.616035,165.166794 106.105713,165.139725 107.664619,166.496887 
	C109.238670,168.569901 111.384232,168.335785 113.437073,169.144089 
	C114.953415,169.811539 116.114319,170.414749 117.600983,171.059021 
	C118.424179,171.399948 118.921616,171.699829 119.723404,171.986359 
	C120.019035,172.383087 120.010307,172.793152 120.042801,173.506851 
	C119.750031,174.065903 119.416023,174.321320 118.784195,174.682312 
	C117.390923,174.924881 116.499123,174.416367 115.262993,173.724091 
	C112.788841,173.507690 110.909164,172.497498 108.486458,172.010681 
	C94.833153,168.509048 81.752113,171.205811 68.732086,173.364975 
	C60.924042,174.659805 53.154991,176.094498 44.872169,176.858337 
z"/>
<path fill="#111010" opacity="1.000000" stroke="none" 
	d="
M148.856613,172.149643 
	C148.458633,171.984558 148.212021,172.389526 148.113586,172.457458 
	C146.496613,174.574692 144.167801,174.298660 141.634338,174.507965 
	C141.072708,174.244263 140.919235,174.079178 140.597229,173.622772 
	C141.854721,172.443924 143.280746,171.556366 144.957870,170.429672 
	C147.980911,169.166519 150.752838,168.142502 153.778900,166.943817 
	C165.205017,165.001740 176.278488,165.782547 187.246506,168.252563 
	C196.501282,170.336761 205.761703,172.360764 215.557129,173.658813 
	C216.406647,173.755920 216.863892,173.859955 217.673676,173.933289 
	C219.736389,173.983078 221.446594,174.063553 223.581177,174.080811 
	C224.172897,174.037628 224.340195,174.057648 224.756348,174.032898 
	C225.005203,173.988129 225.450592,174.020874 225.672119,174.044037 
	C226.033508,174.781006 226.173370,175.494827 226.026703,176.893723 
	C225.475235,177.708923 225.210281,177.839081 224.515930,178.071350 
	C210.645935,176.582733 197.275772,174.536667 183.965363,172.080475 
	C173.808899,170.206314 163.603241,169.884384 152.937744,171.472260 
	C151.424911,171.781128 150.505615,172.719315 148.856613,172.149643 
z"/>
<path fill="#470F0D" opacity="1.000000" stroke="none" 
	d="
M33.750740,176.001038 
	C33.988464,176.176437 34.027725,176.392685 34.114029,176.935226 
	C36.890480,177.835464 39.663094,177.300537 42.679359,177.893402 
	C43.897900,179.354507 45.387245,178.740738 46.754013,179.507263 
	C42.045925,179.628128 36.972340,181.703751 32.187729,178.438477 
	C32.478470,177.569885 32.760933,177.125870 33.102623,176.416138 
	C33.161854,176.150452 33.552284,176.041901 33.750740,176.001038 
z"/>
<path fill="#401614" opacity="1.000000" stroke="none" 
	d="
M214.462463,179.832764 
	C214.571487,179.342606 215.130692,178.967102 215.853638,178.393555 
	C218.105240,175.819153 220.617188,177.714355 223.322876,177.510498 
	C224.258408,177.518997 224.791214,177.504822 225.652710,177.245087 
	C225.981995,177.022125 226.151001,176.930084 226.252411,176.933197 
	C226.746490,177.222931 227.139160,177.509552 227.754639,177.909286 
	C228.165588,180.270782 226.581223,180.195969 225.100769,180.172821 
	C221.704391,180.119705 218.308640,180.025131 214.462463,179.832764 
z"/>
<path fill="#4B4B4B" opacity="1.000000" stroke="none" 
	d="
M141.359802,174.597870 
	C143.225906,173.831909 145.225616,173.254486 147.620255,172.601227 
	C148.306183,175.602982 145.315018,174.459671 143.789795,175.872803 
	C142.827454,175.704941 142.160446,175.245682 141.359802,174.597870 
z"/>
<path fill="#424343" opacity="1.000000" stroke="none" 
	d="
M114.739685,173.411911 
	C115.949043,173.431931 116.920090,173.824692 118.188744,174.502655 
	C118.150185,175.143234 117.814018,175.498596 117.242058,175.940613 
	C116.434616,175.661072 115.862961,175.294891 115.120995,174.737823 
	C114.800903,174.292847 114.651131,174.038757 114.739685,173.411911 
z"/>
<path fill="#636265" opacity="1.000000" stroke="none" 
	d="
M107.993271,166.628616 
	C94.208511,164.619141 80.675392,166.645065 67.208107,169.580826 
	C65.116837,170.036697 63.052788,170.781860 60.694016,169.368454 
	C71.836830,165.991547 83.240936,163.076050 95.114357,163.214645 
	C99.370277,163.264297 103.712860,163.388687 107.786911,165.857971 
	C107.935532,166.213913 107.958946,166.492905 107.993271,166.628616 
z"/>
<path fill="#545355" opacity="1.000000" stroke="none" 
	d="
M60.057617,168.973236 
	C60.456703,170.864975 59.148258,171.542786 57.581558,171.786499 
	C52.662350,172.551697 47.731483,173.242004 42.378849,173.917206 
	C41.629253,173.551605 41.501938,173.160980 41.740646,172.452698 
	C47.826012,171.121735 53.713581,170.049118 60.057617,168.973236 
z"/>
<path fill="#6D6C6F" opacity="1.000000" stroke="none" 
	d="
M41.518688,172.174362 
	C41.949902,172.567505 41.961361,172.940659 41.962692,173.593460 
	C39.930355,173.951889 37.908146,174.030670 35.454758,174.057922 
	C35.030296,173.697784 35.075535,173.394943 35.220436,172.884735 
	C37.220695,172.499161 39.159817,172.326767 41.518688,172.174362 
z"/>
<path fill="#6D6C6F" opacity="1.000000" stroke="none" 
	d="
M44.945091,177.254700 
	C48.117508,174.731644 52.361980,175.139938 56.328049,174.501068 
	C69.028831,172.455139 81.514603,168.993927 94.534851,168.953293 
	C99.234703,168.938629 103.639175,170.117767 108.554245,171.005737 
	C109.135803,171.601746 109.065269,172.048782 108.353188,172.579483 
	C92.660843,170.133270 77.689003,173.507614 62.648956,175.642227 
	C56.915829,176.455917 51.236057,177.663055 44.945091,177.254700 
z"/>
<path fill="#5D5D5E" opacity="1.000000" stroke="none" 
	d="
M108.373550,172.870651 
	C108.265404,172.327179 108.522141,171.934784 108.864975,171.324280 
	C110.724777,171.715073 112.498482,172.323944 114.625092,172.985992 
	C114.978020,173.290085 114.978035,173.541031 114.964371,174.169464 
	C112.879936,174.038544 110.809196,173.530136 108.373550,172.870651 
z"/>
<path fill="#777679" opacity="1.000000" stroke="none" 
	d="
M43.208469,177.955994 
	C40.208019,178.075409 37.461189,177.946671 34.437717,177.539734 
	C36.986607,177.040726 39.812138,176.819916 43.088230,176.800751 
	C43.513226,177.237534 43.487659,177.472702 43.208469,177.955994 
z"/>
<path fill="#7B7B7C" opacity="1.000000" stroke="none" 
	d="
M225.175766,177.796936 
	C222.309708,178.062439 219.605743,178.065155 216.459564,178.131699 
	C202.896149,176.274979 189.782761,174.298950 176.650848,172.454605 
	C168.727844,171.341827 160.781326,171.337997 152.386292,172.647858 
	C151.823715,172.449173 151.730270,172.174362 151.850769,171.520325 
	C164.294098,167.368103 176.475693,169.374756 188.633743,171.521378 
	C200.434036,173.604843 212.187012,175.978714 224.581085,176.942062 
	C225.110062,177.191254 225.223953,177.362701 225.175766,177.796936 
z"/>
<path fill="#5D5D5E" opacity="1.000000" stroke="none" 
	d="
M151.694794,171.173325 
	C152.050934,171.405045 152.037140,171.668991 151.970245,172.328461 
	C150.838058,173.322220 149.769348,173.453003 148.589996,172.318756 
	C149.414047,171.724884 150.369446,171.465225 151.694794,171.173325 
z"/>
<path fill="#6D6C6F" opacity="1.000000" stroke="none" 
	d="
M225.273956,178.003510 
	C225.010498,177.886322 225.007339,177.712936 225.000183,177.279678 
	C224.996155,177.019791 225.489502,176.961075 225.735748,176.991608 
	C225.832748,177.330521 225.683502,177.638916 225.273956,178.003510 
z"/>
</svg>